 <svg version="1.0" xmlns="http://www.w3.org/2000/svg" width="700.000000pt" height="394.000000pt" viewBox="0 0 700.000000 394.000000" preserveAspectRatio="xMidYMid meet">
<metadata>
Created by potrace 1.12, written by Peter Selinger 2001-2015
</metadata>
<g transform="translate(0.000000,394.000000) scale(0.100000,-0.100000)" fill="#000000" stroke="none">
<path d="M0 3431 l0 -510 29 -43 c30 -45 48 -77 145 -253 95 -172 91 -162 76
-180 -13 -15 -15 -14 -31 6 -9 12 -14 30 -11 41 3 13 0 17 -11 12 -11 -4 -28
15 -61 66 -25 39 -46 73 -46 77 0 14 -84 116 -87 106 -6 -18 109 -201 266
-423 17 -25 53 -76 79 -115 84 -123 197 -288 243 -355 76 -111 151 -238 147
-250 -2 -6 -75 93 -163 221 -88 128 -166 235 -173 237 -23 7 -12 -20 32 -76
25 -32 51 -68 58 -82 7 -14 41 -65 74 -115 34 -49 107 -162 164 -250 93 -145
334 -489 413 -591 18 -23 65 -85 106 -139 41 -54 99 -128 130 -164 31 -36 97
-115 146 -176 49 -60 127 -153 173 -205 46 -52 91 -108 98 -125 8 -16 19 -37
26 -46 6 -9 8 -24 5 -33 -5 -13 -24 -16 -114 -17 -59 0 -265 -2 -458 -4 -192
-2 -479 -1 -637 2 -243 5 -288 8 -288 21 0 9 6 12 16 8 31 -12 34 6 8 37 -64
77 -136 149 -141 143 -4 -4 13 -27 37 -51 24 -25 39 -45 33 -45 -17 0 -92 94
-90 112 3 23 -187 242 -191 222 -2 -8 2 -21 8 -29 9 -11 9 -15 1 -15 -8 0 -11
-56 -11 -188 0 -186 0 -189 23 -200 l22 -11 -22 0 c-18 -1 -23 -7 -23 -26 l0
-25 3500 0 3500 0 0 1970 0 1970 -3500 0 -3500 0 0 -509z m4610 455 c0 -3 -9
-21 -21 -40 -27 -46 -50 -134 -38 -142 12 -7 39 14 39 31 0 13 65 67 93 78 24
9 22 1 -16 -52 -19 -25 -37 -54 -40 -63 -8 -24 13 -35 28 -15 14 20 55 23 55
5 0 -7 -16 -38 -35 -68 -21 -32 -35 -67 -35 -86 0 -17 -8 -49 -17 -70 -19 -44
-27 -108 -12 -99 15 10 10 -7 -8 -27 -15 -17 -15 -20 6 -42 12 -13 21 -29 19
-37 -2 -7 7 -15 19 -17 32 -5 49 -29 25 -36 -18 -6 -42 -45 -42 -68 0 -6 11
-1 25 12 14 13 27 21 30 18 9 -9 -6 -38 -20 -38 -8 0 -23 -14 -36 -31 -28 -40
-12 -59 23 -26 13 13 30 21 37 19 6 -2 33 19 59 47 27 28 56 51 66 51 16 0 17
-2 5 -17 -39 -53 -133 -127 -209 -165 -81 -40 -121 -74 -217 -181 l-32 -36
-74 6 c-69 5 -74 4 -89 -18 -8 -13 -21 -48 -29 -77 -11 -43 -11 -57 0 -74 7
-11 10 -22 7 -25 -9 -9 -109 47 -144 80 -40 38 -72 122 -72 188 0 47 3 53 51
99 28 27 62 64 75 82 l24 32 0 -45 c0 -50 49 -145 96 -186 47 -42 184 -25 184
23 0 17 -12 18 -27 3 -5 -5 -38 -9 -74 -7 -55 3 -64 6 -68 23 -2 11 -16 35
-32 53 -16 18 -29 43 -29 55 0 13 -5 28 -11 34 -8 8 14 45 80 134 49 68 104
139 121 157 17 18 28 37 25 42 -7 11 -35 -8 -103 -71 -33 -32 -43 -37 -48 -25
-3 9 5 28 19 46 21 24 24 37 20 69 -4 30 2 57 23 108 15 37 31 72 36 78 4 5 8
18 8 30 0 22 52 114 97 174 25 32 27 33 40 15 14 -18 18 -16 66 38 44 48 77
72 77 54z m510 -18 c-19 -12 -52 -43 -73 -70 -41 -52 -67 -62 -67 -24 0 36 36
73 93 95 68 26 91 26 47 -1z m-5050 -13 c0 -14 -4 -25 -8 -25 -5 0 -14 11 -20
25 -10 22 -9 25 8 25 15 0 20 -7 20 -25z m4020 15 c0 -5 -4 -10 -10 -10 -5 0
-10 5 -10 10 0 6 5 10 10 10 6 0 10 -4 10 -10z m-724 -108 c-13 -13 -13 -10
-3 29 11 40 12 42 15 15 2 -16 -3 -35 -12 -44z m2099 18 c-8 -13 -131 -50
-168 -50 -46 0 -21 19 55 40 70 21 122 25 113 10z m-235 -58 c0 -4 -15 -16
-32 -26 -18 -11 -52 -40 -76 -65 l-43 -46 17 40 c30 67 70 103 117 104 9 1 17
-3 17 -7z m510 -31 c0 -14 -68 -43 -114 -49 -52 -6 -46 0 29 31 66 28 85 32
85 18z m-1650 -70 c-12 -27 -28 -52 -36 -55 -21 -8 -17 9 12 62 38 68 37 67
41 55 2 -6 -5 -34 -17 -62z m1848 -74 c27 -40 65 -107 85 -149 26 -54 46 -81
64 -90 36 -17 161 -184 169 -224 3 -18 1 -57 -6 -89 -10 -47 -9 -62 3 -88 31
-68 43 -306 16 -323 -5 -3 -9 -23 -9 -44 0 -21 -4 -42 -10 -45 -5 -3 -10 -20
-10 -37 0 -17 -12 -65 -26 -106 -23 -67 -24 -76 -10 -91 9 -10 16 -25 16 -33
0 -29 -32 -93 -72 -142 -31 -40 -38 -55 -33 -78 8 -33 -5 -37 -24 -6 l-13 21
-18 -23 c-12 -16 -19 -19 -25 -11 -4 7 0 20 8 29 8 9 17 41 21 71 4 30 14 63
22 75 8 11 14 31 14 43 0 16 8 27 25 33 20 8 25 16 25 45 0 24 -5 35 -15 35
-10 0 -15 -10 -15 -32 0 -17 -3 -28 -7 -25 -13 13 20 182 44 229 20 38 25 65
28 145 2 72 9 111 24 146 22 51 28 117 11 117 -5 0 -10 -9 -10 -20 0 -11 -4
-29 -10 -40 -5 -11 -14 -29 -20 -40 -5 -11 -10 -26 -10 -35 0 -8 -8 -29 -18
-47 -10 -18 -22 -49 -26 -68 -3 -19 -19 -71 -35 -115 -63 -178 -70 -215 -36
-215 19 0 28 -35 16 -59 -6 -11 -11 -30 -11 -43 0 -13 -11 -55 -25 -93 -45
-126 -63 -153 -80 -125 -10 16 -35 12 -35 -5 0 -9 10 -19 23 -24 13 -5 36 -25
51 -45 22 -30 25 -40 16 -51 -9 -11 -10 -18 -1 -29 11 -14 5 -46 -9 -46 -10 0
-21 56 -14 75 6 16 -13 48 -25 41 -11 -7 -14 -226 -2 -226 6 0 11 17 11 38 0
20 5 44 11 52 7 11 9 3 5 -30 -17 -136 -18 -273 -3 -333 9 -34 24 -116 33
-182 8 -66 19 -140 24 -165 5 -25 11 -65 15 -90 4 -25 10 -54 15 -65 14 -33
40 -191 40 -239 0 -108 -74 -252 -210 -410 -58 -67 -116 -133 -129 -146 -12
-14 -29 -35 -37 -46 -14 -20 -25 -22 -247 -27 -127 -4 -317 -3 -420 1 -103 4
-198 4 -211 1 -40 -11 -52 4 -37 48 21 62 53 175 62 218 4 22 13 60 19 85 11
46 23 176 39 405 5 72 12 138 16 148 6 14 4 18 -11 15 -21 -4 -32 28 -15 45 8
8 11 6 11 -6 0 -9 5 -17 10 -17 9 0 17 241 14 430 -1 75 -18 205 -34 260 -16
55 -34 76 -82 101 -47 24 -54 38 -61 127 -5 61 -3 74 10 79 9 3 24 1 34 -5 10
-7 25 -12 34 -12 17 0 192 -162 216 -200 9 -14 19 -53 23 -85 4 -33 12 -94 17
-135 15 -116 23 -595 11 -670 -15 -89 -35 -250 -36 -279 -1 -13 5 -26 12 -28
8 -3 12 8 12 36 0 22 4 42 9 45 5 3 11 32 14 63 3 32 13 104 21 161 30 213 28
601 -4 747 -6 28 -14 68 -17 90 -3 22 -13 49 -22 60 -10 11 -29 40 -44 65 -44
76 -140 175 -186 190 -28 9 -44 10 -53 3 -21 -17 -66 -21 -112 -11 -31 6 -56
23 -94 60 -58 57 -71 88 -51 124 10 19 10 27 0 37 -10 9 -15 8 -25 -5 -28 -38
-57 -7 -76 82 l-12 55 134 265 c148 295 168 338 168 367 0 26 108 130 230 220
100 74 148 99 137 69 -7 -18 17 -23 28 -6 3 6 18 10 32 10 l26 0 -21 -23 c-28
-30 -22 -36 32 -30 27 3 56 0 77 -10 19 -9 44 -18 57 -22 26 -7 20 -25 -9 -25
-10 0 -19 -5 -19 -11 0 -8 13 -10 38 -6 32 4 48 -1 92 -29 30 -19 59 -34 66
-34 18 0 108 -108 134 -160 12 -25 27 -48 33 -52 20 -12 26 2 12 30 -8 15 -18
96 -25 192 -6 91 -16 181 -22 201 -9 34 -7 42 43 135 30 54 73 118 96 142 52
55 64 50 131 -51z m-528 -28 c-45 -44 -85 -78 -88 -75 -3 3 2 14 11 24 10 10
17 23 17 29 0 21 79 92 107 96 15 2 30 5 32 6 1 0 -34 -35 -79 -80z m-345 51
c-3 -5 -11 -10 -16 -10 -6 0 -7 5 -4 10 3 6 11 10 16 10 6 0 7 -4 4 -10z
m-378 -16 c-3 -3 -12 -4 -19 -1 -8 3 -5 6 6 6 11 1 17 -2 13 -5z m93 -70 c0
-16 -23 -44 -35 -44 -15 0 -21 31 -8 43 8 8 43 9 43 1z m145 -20 c-28 -22
-147 -76 -153 -69 -9 8 10 23 69 54 30 16 65 29 79 30 25 0 25 0 5 -15z
m-2420 -254 c48 -95 79 -211 97 -365 11 -102 3 -464 -12 -479 -14 -14 -81 19
-203 102 -59 39 -116 72 -125 72 -17 0 -33 -9 -118 -69 -91 -63 -104 -80 -104
-131 0 -40 -4 -49 -30 -68 -48 -36 -37 -69 13 -38 24 15 115 8 153 -12 27 -14
64 -29 105 -43 38 -13 102 -5 199 23 56 16 70 25 70 44 0 11 -14 14 -60 14
-59 0 -79 3 -215 36 -38 9 -91 19 -117 21 -51 5 -58 12 -32 34 11 9 47 13 108
14 87 0 105 -4 168 -36 10 -5 29 -9 42 -9 14 0 28 -5 31 -10 4 -6 11 -8 16 -4
17 10 -12 34 -42 34 -16 0 -29 5 -29 10 0 19 120 1 157 -23 20 -13 3 -158 -34
-295 -30 -109 -279 -378 -488 -526 -131 -93 -291 -198 -356 -233 -132 -70
-272 -134 -279 -126 -4 4 -20 33 -36 63 -16 30 -35 59 -41 63 -17 10 -17 37 0
37 190 7 210 11 262 54 39 34 24 45 -24 18 -83 -47 -235 -15 -295 62 -44 57
-126 136 -141 136 -22 0 -19 -15 18 -84 64 -116 79 -141 100 -166 21 -24 27
-33 69 -109 11 -20 24 -40 29 -45 5 -6 9 -20 9 -33 0 -37 -27 -17 -66 51 -44
78 -58 100 -64 106 -16 16 -80 99 -80 104 0 3 -15 27 -34 53 -71 100 -186 330
-186 373 0 16 -4 30 -9 32 -13 5 -91 172 -91 195 0 11 -7 37 -16 58 -27 65 12
61 46 -4 22 -44 26 -71 10 -71 -5 0 -10 7 -10 15 0 8 -4 15 -10 15 -5 0 -10
-4 -10 -10 0 -11 40 -84 85 -155 17 -27 37 -63 43 -80 15 -36 58 -92 47 -60
-4 11 -10 31 -13 45 -3 13 -11 31 -19 38 -14 15 -17 32 -5 32 4 0 13 -13 20
-30 7 -16 28 -38 46 -49 18 -11 38 -32 44 -46 10 -21 32 -35 32 -20 0 10 -49
83 -60 90 -5 3 -10 16 -10 27 0 12 -9 40 -20 63 -15 32 -18 48 -11 72 7 24 6
35 -5 44 -8 6 -14 19 -14 28 0 9 -21 39 -46 66 -44 49 -134 215 -134 248 0 24
19 21 30 -5 8 -17 9 -10 4 28 -6 52 5 75 24 51 11 -13 110 -208 136 -269 10
-21 23 -38 31 -38 8 0 15 -8 15 -19 0 -21 27 -48 37 -37 4 3 -3 20 -15 36 -12
16 -22 35 -22 43 0 7 -4 17 -9 23 -17 16 -121 228 -121 246 0 9 5 20 10 23 6
3 10 17 10 30 0 13 5 27 10 30 6 3 10 15 10 26 0 26 18 24 22 -3 2 -12 9 -23
17 -26 16 -5 12 33 -10 85 -11 26 -10 34 1 48 20 25 251 175 268 175 3 0 13 6
21 14 37 31 378 200 526 259 249 100 513 187 569 187 34 0 65 20 67 43 1 7 5
-5 10 -26 5 -20 20 -59 34 -87z m2325 -84 c0 -3 -4 -8 -10 -11 -5 -3 -10 -1
-10 4 0 6 5 11 10 11 6 0 10 -2 10 -4z m1517 -117 c26 -23 78 -62 115 -87 50
-33 68 -51 68 -67 0 -34 -24 -48 -69 -41 -26 4 -42 2 -47 -6 -8 -13 11 -29 94
-74 45 -24 57 -36 57 -55 0 -13 6 -34 13 -46 18 -32 117 -88 207 -118 19 -6
19 -7 -4 -24 -24 -18 -22 -41 4 -41 7 0 54 -45 104 -100 l91 -100 0 -1100 0
-1100 -92 -1 c-51 -1 -154 -2 -229 -4 -75 -1 -187 1 -250 4 l-113 6 3 63 c1
35 -2 69 -7 75 -10 13 -20 133 -31 363 -3 82 -11 147 -18 155 -6 8 -13 24 -15
37 -5 37 -23 25 -24 -16 0 -40 -11 -72 -24 -72 -4 0 -11 26 -15 59 -6 48 -3
65 14 99 12 23 21 53 21 67 0 14 6 35 13 46 10 18 9 23 -15 42 -23 19 -29 35
-39 102 -6 44 -17 89 -24 100 -7 11 -15 36 -17 55 -3 19 -15 82 -28 140 -24
114 -33 227 -19 236 5 3 9 -4 9 -15 0 -27 26 -27 33 -1 3 11 13 23 24 26 20 8
73 54 73 65 0 3 -13 22 -30 40 -16 19 -30 37 -30 42 0 4 -7 7 -16 7 -11 0 -14
-6 -9 -20 3 -11 2 -28 -4 -37 -9 -16 -10 -15 -11 8 0 15 -6 32 -14 38 -15 13
-32 69 -23 77 2 3 14 -10 26 -28 l21 -33 0 31 c0 16 -7 39 -15 50 -8 10 -15
28 -15 38 0 19 0 19 13 1 8 -10 17 -14 20 -8 19 31 54 147 50 164 -5 17 -2 20
13 17 22 -4 22 -21 0 -101 -19 -69 -20 -99 -4 -115 21 -21 29 -13 22 23 -5 30
-4 34 10 29 12 -5 16 0 16 20 0 31 20 35 27 6 3 -11 9 -20 14 -20 15 0 10 47
-6 60 -18 15 -20 53 -2 48 6 -3 13 -14 15 -26 2 -12 8 -22 13 -22 16 0 10 30
-11 52 -21 23 -28 102 -10 113 6 3 10 22 10 42 0 27 3 34 15 30 10 -5 14 1 14
21 -1 15 2 39 6 54 5 20 1 38 -14 63 -22 38 -28 85 -11 85 6 0 10 -13 10 -30
0 -16 5 -30 10 -30 6 0 10 -9 10 -20 0 -11 5 -20 11 -20 8 0 9 11 5 31 -4 23
-2 35 9 43 23 17 32 215 12 253 -14 25 -28 81 -59 233 -16 81 -21 160 -10 160
6 0 32 -19 59 -41z m-1617 -22 c0 -26 -281 -575 -297 -581 -25 -10 -38 11 -37
58 1 35 12 60 57 129 32 47 57 89 57 92 0 4 14 26 30 50 17 24 30 46 30 50 0
3 17 32 37 63 20 31 47 78 60 105 16 33 29 47 43 47 11 0 20 -6 20 -13z m-843
-35 c-2 -4 -9 -20 -16 -37 -7 -16 -17 -37 -20 -44 -23 -47 -185 -31 -230 23
-10 12 -8 17 16 29 15 8 57 17 93 21 115 13 133 15 138 20 7 7 23 -4 19 -12z
m736 1 c-3 -10 -9 -22 -13 -28 -8 -11 -43 -73 -98 -175 -61 -112 -74 -135 -82
-144 -14 -14 -23 61 -16 126 8 83 66 163 156 217 43 26 62 27 53 4z m-273
-332 c0 -6 -5 -13 -11 -16 -7 -5 -4 -14 8 -27 17 -19 17 -20 -10 -40 -34 -25
-36 -46 -2 -24 23 15 26 15 32 1 3 -9 1 -21 -6 -28 -17 -17 -14 -38 14 -95 14
-29 25 -56 25 -61 0 -5 10 -11 22 -13 15 -2 26 -13 32 -33 14 -47 29 -78 47
-100 9 -11 27 -39 39 -62 12 -24 27 -43 34 -43 7 0 27 -20 45 -44 24 -31 43
-46 66 -50 48 -9 67 -36 63 -87 -3 -42 -4 -44 -38 -46 -58 -4 -110 -15 -116
-24 -3 -5 -13 -9 -22 -9 -23 0 -79 -46 -69 -56 5 -5 22 -1 38 9 60 34 66 15
14 -40 -195 -209 -234 -241 -330 -273 -106 -35 -231 -125 -277 -198 -19 -30
-19 -34 -4 -51 18 -19 22 -66 6 -76 -13 -8 -100 105 -100 131 0 26 77 114 126
145 28 17 35 27 31 45 -2 15 3 30 15 41 10 9 26 32 35 51 16 34 29 47 111 118
62 54 68 68 39 107 -12 17 -30 45 -38 61 -7 17 -35 43 -61 59 -28 18 -48 37
-48 48 0 11 -10 20 -29 24 -22 5 -41 -1 -82 -27 -91 -55 -149 -99 -143 -109 3
-5 13 -5 24 1 20 11 203 13 262 4 29 -5 42 -15 58 -41 25 -43 25 -58 -1 -94
-24 -35 -31 -35 -68 -8 -31 23 -65 23 -181 -1 -30 -6 -79 -14 -108 -18 -28 -5
-57 -13 -64 -20 -7 -7 -24 -12 -39 -12 -35 0 -60 -27 -33 -36 11 -3 39 -14 64
-24 24 -10 48 -16 53 -13 13 8 -13 33 -34 33 -23 0 -25 25 -3 34 9 3 34 6 57
6 22 0 54 4 71 9 92 28 196 35 196 12 0 -3 -22 -19 -49 -35 -41 -24 -56 -42
-88 -103 -21 -41 -41 -77 -46 -80 -4 -2 -24 10 -44 28 -65 57 -168 98 -261
106 -46 3 -85 10 -88 15 -3 4 -21 8 -40 8 -59 0 -124 45 -124 86 0 23 43 68
341 361 156 153 279 288 279 305 0 38 221 181 251 162 14 -8 11 -24 -5 -24
-17 0 -52 -18 -96 -51 -116 -85 -140 -104 -140 -111 0 -10 80 35 158 88 35 24
66 44 70 44 10 0 42 38 42 50 0 6 10 10 23 10 27 1 98 60 80 67 -26 9 -12 39
20 42 4 1 7 -3 7 -8z m1970 -128 c0 -24 -4 -43 -10 -43 -5 0 -10 13 -10 29 0
16 -3 44 -6 62 -6 32 -6 33 9 14 9 -11 17 -39 17 -62z m-2110 51 c0 -8 -5 -12
-10 -9 -6 4 -8 11 -5 16 9 14 15 11 15 -7z m-3922 -124 c8 -16 10 -35 6 -41
-3 -6 0 -15 7 -20 7 -4 10 -11 7 -14 -7 -7 -67 54 -68 68 0 9 22 36 30 37 3 0
11 -13 18 -30z m2112 -50 c0 -5 -7 -10 -15 -10 -8 0 -15 5 -15 10 0 6 7 10 15
10 8 0 15 -4 15 -10z m3867 -52 c-3 -8 -6 -5 -6 6 -1 11 2 17 5 13 3 -3 4 -12
1 -19z m-3963 -74 c80 -18 92 -34 23 -33 -49 1 -109 20 -115 37 -5 16 3 15 92
-4z m-1576 -121 c19 -43 13 -62 -8 -23 -21 38 -24 50 -12 50 4 0 13 -12 20
-27z m5492 -28 c0 -8 -4 -15 -10 -15 -5 0 -10 7 -10 15 0 8 5 15 10 15 6 0 10
-7 10 -15z m-3594 -104 c-3 -23 -2 -42 4 -46 16 -10 12 -82 -10 -175 -20 -89
-27 -118 -60 -287 -22 -106 -22 -96 12 -243 16 -72 29 -101 76 -175 57 -89 82
-120 146 -174 88 -76 88 -69 4 -174 -40 -51 -93 -119 -118 -152 -57 -77 -146
-188 -235 -292 -47 -56 -73 -79 -80 -72 -7 7 -5 13 5 19 11 7 12 12 3 21 -9 9
-24 0 -64 -39 -92 -90 -75 -48 41 103 43 55 92 114 110 130 18 17 51 55 73 85
23 30 47 61 54 68 7 8 18 23 24 35 l12 20 -27 -20 c-15 -12 -52 -53 -84 -91
-86 -105 -160 -193 -195 -231 -25 -27 -33 -31 -35 -18 -2 9 -8 17 -13 17 -12
0 -11 46 1 90 5 20 12 68 14 108 3 39 7 76 10 80 3 5 8 120 11 256 2 136 7
257 9 269 19 101 35 150 63 200 18 33 33 61 33 63 0 2 11 27 24 56 59 131 86
197 86 212 0 8 5 18 10 21 6 3 10 15 10 26 0 10 4 27 9 37 5 9 13 28 19 42 5
14 15 38 21 53 14 35 14 67 1 67 -5 0 -10 -9 -10 -20 0 -11 -4 -28 -9 -38 -5
-9 -19 -44 -31 -77 -12 -33 -33 -84 -46 -113 -13 -29 -24 -57 -24 -62 0 -6 -4
-18 -9 -28 -65 -121 -156 -329 -171 -390 -16 -64 -20 -112 -20 -290 0 -220
-20 -437 -46 -500 -18 -44 -59 -59 -98 -36 -16 9 -53 18 -83 19 -60 3 -77 13
-103 66 -11 20 -37 52 -60 71 -22 19 -40 43 -40 52 0 11 -6 16 -17 14 -32 -6
-24 -28 26 -76 28 -27 51 -54 51 -59 0 -6 9 -22 21 -37 11 -14 19 -34 17 -43
-7 -37 -178 163 -178 210 0 18 17 52 37 74 6 7 15 23 18 35 4 11 37 51 74 87
114 113 253 287 335 420 43 69 192 360 211 411 9 25 21 54 25 65 20 45 59 156
90 250 34 105 53 145 72 145 7 0 8 -14 4 -39z m-1671 -31 c3 -5 1 -10 -4 -10
-6 0 -11 5 -11 10 0 6 2 10 4 10 3 0 8 -4 11 -10z m5085 -4 c0 -8 -4 -18 -10
-21 -5 -3 -10 -4 -10 -1 0 2 -3 11 -6 20 -4 11 -1 16 10 16 9 0 16 -6 16 -14z
m-2682 -32 c67 -1 121 -6 120 -11 -2 -4 -47 -50 -100 -102 -94 -89 -98 -95
-98 -136 0 -45 17 -68 60 -79 14 -3 34 -13 44 -21 19 -14 19 -16 1 -90 -11
-42 -25 -81 -32 -87 -19 -16 -119 94 -137 152 -11 31 -16 95 -16 205 -2 203
-3 189 18 179 9 -5 72 -9 140 -10z m-2378 -14 c0 -5 -2 -10 -4 -10 -3 0 -8 5
-11 10 -3 6 -1 10 4 10 6 0 11 -4 11 -10z m1480 -167 c-54 -169 -117 -306
-243 -533 -46 -82 -164 -245 -232 -319 -33 -37 -84 -94 -114 -129 -59 -68 -77
-77 -67 -34 10 39 24 117 36 194 17 120 33 185 78 318 19 58 41 118 49 133 8
16 50 52 101 84 100 65 173 132 315 291 56 63 103 109 105 103 2 -6 -11 -55
-28 -108z m2215 -5 c19 -8 29 -25 41 -67 29 -100 39 -107 62 -40 16 50 40 89
54 89 22 0 68 -45 68 -68 0 -13 4 -31 9 -41 5 -9 11 -48 12 -86 2 -62 0 -70
-16 -74 -11 -2 -35 -14 -54 -27 -23 -15 -43 -21 -58 -18 -17 5 -23 2 -23 -10
0 -10 -9 -16 -24 -16 -13 0 -26 -7 -30 -15 -3 -8 -12 -15 -19 -15 -16 0 -63
-57 -87 -104 -22 -43 -34 -42 -55 4 -10 23 -22 43 -26 46 -4 2 -30 -18 -57
-44 -49 -48 -52 -49 -99 -45 -37 4 -52 1 -62 -11 -7 -9 -19 -16 -25 -16 -6 0
-47 -27 -91 -61 -44 -33 -90 -65 -102 -69 -12 -5 -24 -18 -28 -30 -10 -31 -39
-21 -43 15 -9 111 -13 230 -8 250 8 31 161 135 199 135 7 0 44 16 84 35 50 24
84 49 114 85 44 52 54 54 70 13 13 -34 24 -23 43 46 11 39 30 74 57 105 43 49
53 53 94 34z m-1190 -187 c11 -19 -60 -191 -82 -199 -16 -5 -17 32 -3 59 6 10
15 45 21 76 6 32 13 61 16 66 6 10 41 9 48 -2z m115 -13 c0 -7 -16 -23 -36
-36 l-35 -23 4 33 c3 18 6 34 6 36 4 9 61 0 61 -10z m134 -45 c37 -20 81 -49
98 -64 l32 -26 -27 -62 c-40 -92 -37 -102 41 -179 37 -37 79 -75 94 -84 19
-13 27 -29 32 -63 11 -67 41 -77 221 -72 142 4 207 14 205 32 -1 10 -16 11
-105 4 -46 -4 -50 -2 -53 19 -2 12 -7 22 -12 22 -5 0 -10 -10 -12 -22 -2 -19
-9 -23 -42 -23 -34 0 -41 4 -49 29 -9 26 -5 32 34 70 49 46 114 80 186 96 26
6 53 16 59 21 19 15 24 -3 14 -47 -23 -97 -2 -164 51 -164 15 0 31 -4 34 -10
12 -19 44 -10 65 20 12 16 30 30 41 30 32 0 23 -43 -20 -91 -138 -154 -370
-482 -425 -599 -14 -30 -37 -74 -51 -98 -14 -23 -25 -49 -25 -56 0 -8 -11 -21
-25 -30 -17 -11 -25 -26 -25 -45 0 -56 7 -55 -498 -59 -256 -3 -583 -1 -728 3
l-263 7 85 100 c75 91 90 118 64 118 -5 0 -34 -33 -65 -74 -72 -97 -115 -117
-82 -39 9 21 19 49 23 63 3 14 35 69 69 122 46 69 70 97 87 100 14 2 36 22 58
53 38 54 206 220 223 220 6 0 51 61 102 135 50 74 139 200 198 280 58 80 107
153 107 163 0 10 7 20 15 23 17 7 146 158 164 192 16 30 27 28 105 -15z m1204
-98 c4 -35 -10 -43 -70 -37 -32 2 -58 8 -58 11 0 4 17 17 38 29 46 26 86 25
90 -3z m-94 -70 c60 -25 80 -89 54 -179 -15 -52 -14 -51 -33 -36 -13 11 -18
10 -29 -5 -10 -14 -20 -16 -49 -11 -21 4 -37 12 -38 19 0 7 -2 50 -5 97 -5 88
-2 97 31 117 26 16 27 15 69 -2z m-164 -130 c0 -65 3 -86 15 -93 13 -6 14 -14
6 -34 -11 -30 -27 -43 -35 -29 -9 15 -19 189 -12 216 13 52 26 23 26 -60z
m-3068 -47 c-34 -48 -90 -108 -102 -108 -20 0 8 46 61 102 67 68 86 72 41 6z
m-82 -26 c0 -5 -12 -20 -28 -35 -20 -19 -31 -24 -42 -16 -13 8 -10 14 15 34
30 25 55 32 55 17z m2956 -49 c-10 -10 -19 5 -10 18 6 11 8 11 12 0 2 -7 1
-15 -2 -18z m125 6 c9 -18 7 -26 -17 -50 -28 -30 -58 -37 -70 -18 -3 6 6 23
20 38 14 15 26 32 26 39 0 20 29 13 41 -9z m1511 -73 c-11 -60 -32 -58 -32 2
0 54 8 69 26 50 8 -9 10 -27 6 -52z m-1632 34 c0 -11 -7 -20 -15 -20 -15 0
-21 21 -8 33 12 13 23 7 23 -13z m-357 -52 c-10 -21 -12 -21 -18 -5 -10 25 2
54 17 39 8 -8 8 -18 1 -34z m767 1 c0 -18 -4 -28 -10 -24 -5 3 -10 20 -10 36
0 18 4 28 10 24 6 -3 10 -20 10 -36z m1254 -40 c-22 -24 -34 -24 -34 0 0 11 8
21 18 24 28 6 35 -4 16 -24z m-1468 -45 c12 -25 14 -38 6 -46 -8 -8 -15 -8
-25 0 -7 6 -23 9 -35 5 -12 -3 -22 -2 -22 1 0 7 52 76 57 76 1 0 10 -16 19
-36z m1534 -303 c15 -29 12 -50 -4 -28 -16 21 -26 22 -26 3 0 -16 -28 -41 -37
-33 -7 7 38 77 49 77 4 0 12 -9 18 -19z m-6087 -270 c10 -14 -9 3 -42 39 -34
35 -61 69 -61 74 0 9 72 -70 103 -113z m6048 -47 c6 -7 7 -24 3 -39 -5 -22
-11 -26 -30 -22 -13 2 -24 0 -24 -4 0 -5 -7 -6 -16 -2 -21 8 -14 44 23 108
l28 50 3 -40 c2 -22 8 -45 13 -51z m-1389 -4 c3 -16 1 -30 -4 -30 -4 0 -8 14
-8 30 0 17 2 30 4 30 2 0 6 -13 8 -30z m-217 -54 c28 -8 71 -23 96 -34 46 -20
46 -20 51 -79 3 -32 4 -59 3 -61 -4 -5 -337 -4 -342 2 -11 10 20 37 36 31 10
-3 32 14 64 50 56 64 60 80 15 71 -31 -6 -137 -104 -151 -139 -4 -11 -19 -18
-44 -19 -48 -2 -96 1 -102 7 -5 6 25 63 71 138 l30 47 112 0 c63 0 133 -6 161
-14z m1705 -82 c0 -21 -4 -33 -10 -29 -5 3 -10 19 -10 36 0 16 5 29 10 29 6 0
10 -16 10 -36z m-231 7 c12 -8 7 -17 -25 -45 -21 -20 -34 -36 -28 -36 6 0 18
8 28 19 13 14 29 18 72 16 49 -1 58 1 79 27 13 15 26 28 29 28 3 0 6 -20 6
-45 0 -39 3 -45 21 -45 11 0 17 -4 14 -10 -6 -10 -305 -15 -305 -4 0 11 60 92
72 97 19 8 22 8 37 -2z m-5734 -21 c10 -11 16 -20 13 -20 -3 0 -13 9 -23 20
-10 11 -16 20 -13 20 3 0 13 -9 23 -20z m-200 -70 c4 -6 -8 -10 -30 -10 -22 0
-34 4 -30 10 3 6 17 10 30 10 13 0 27 -4 30 -10z m160 0 c4 -6 -7 -10 -27 -10
-25 0 -29 3 -18 10 19 13 37 13 45 0z"></path>
<path d="M5802 3423 c-13 -31 -19 -59 -15 -78 5 -29 5 -29 -10 -10 -14 18 -16
18 -22 3 -8 -19 2 -41 15 -33 4 3 7 -28 7 -68 -1 -39 1 -90 6 -112 4 -22 4
-34 1 -27 -10 21 -32 13 -40 -15 -7 -28 -6 -132 3 -146 2 -4 24 13 49 38 39
40 44 51 44 91 0 25 5 55 11 67 16 32 71 87 85 87 21 0 142 -89 169 -124 56
-74 68 -182 25 -221 -11 -10 -20 -24 -20 -32 0 -7 -7 -16 -15 -19 -8 -4 -15
-12 -15 -20 0 -7 -11 -37 -24 -66 -13 -29 -27 -60 -30 -68 -3 -8 -5 24 -3 73
2 81 -5 108 -19 72 -9 -21 -24 -19 -24 4 0 11 -10 30 -22 44 -20 23 -23 24
-35 8 -24 -31 -14 40 17 119 l30 74 -22 23 c-12 13 -27 23 -34 23 -25 0 -27
-23 -4 -40 27 -20 24 -27 -35 -81 -50 -46 -89 -114 -81 -142 2 -11 -1 -28 -7
-38 -10 -16 -6 -24 28 -59 36 -37 39 -45 43 -106 4 -54 1 -71 -15 -92 -11 -15
-27 -46 -36 -70 -15 -38 -16 -46 -2 -78 8 -20 15 -44 15 -52 0 -9 13 -30 29
-47 27 -27 30 -39 40 -138 6 -60 13 -113 17 -118 14 -24 24 9 24 80 0 52 7 97
20 137 12 32 23 86 26 119 6 62 17 111 36 155 6 14 15 36 21 50 5 14 13 33 18
42 5 10 9 22 9 28 0 16 70 160 100 205 15 23 31 68 38 105 10 57 10 67 -4 77
-9 6 -23 26 -32 45 -11 20 -46 53 -92 85 -105 73 -160 127 -160 158 0 14 -4
33 -10 43 -5 9 -16 34 -24 55 -21 53 -47 49 -74 -10z m77 -83 c7 -25 19 -55
27 -68 13 -20 13 -23 -2 -29 -11 -4 -23 1 -35 15 -22 28 -29 28 -29 -3 0 -14
-4 -25 -10 -25 -17 0 -8 80 16 159 7 21 19 3 33 -49z m82 -695 c-17 -35 -36
-67 -41 -70 -14 -9 -13 -3 14 67 13 35 27 72 31 83 6 19 7 19 16 2 8 -14 3
-33 -20 -82z m46 -42 c-3 -10 -5 -2 -5 17 0 19 2 27 5 18 2 -10 2 -26 0 -35z
m-7 -47 c0 -8 -4 -17 -9 -21 -12 -7 -24 12 -16 25 9 15 25 12 25 -4z m-63 -32
c21 -6 21 -7 5 -33 -9 -14 -30 -40 -46 -58 l-31 -32 -22 21 c-13 12 -23 27
-23 34 0 21 22 28 32 10 5 -9 13 -14 18 -11 6 4 4 14 -3 26 -10 17 -9 22 7 35
22 15 30 17 63 8z m-7 -128 c0 -8 -4 -18 -10 -21 -5 -3 -10 3 -10 14 0 12 5
21 10 21 6 0 10 -6 10 -14z"></path>
<path d="M5954 3139 c-4 -7 7 -22 25 -37 25 -19 31 -30 27 -48 -3 -12 -2 -26
4 -29 6 -3 19 -25 30 -48 11 -23 24 -49 29 -57 5 -8 12 -23 15 -34 5 -15 9
-16 21 -6 20 17 19 32 -4 61 -31 39 -61 98 -61 119 0 20 -55 90 -70 90 -5 0
-12 -5 -16 -11z"></path>
<path d="M5580 2996 c0 -7 -7 -19 -15 -26 -18 -15 -19 -30 -2 -30 6 0 18 12
25 27 15 33 15 43 2 43 -5 0 -10 -6 -10 -14z"></path>
<path d="M5984 2939 c-1 -36 0 -39 14 -26 9 10 12 24 8 41 -10 39 -21 31 -22
-15z"></path>
<path d="M5600 2947 c0 -19 -37 -50 -49 -42 -6 3 -11 1 -11 -4 0 -6 -7 -11
-15 -11 -18 0 -19 12 -3 28 17 17 10 19 -48 14 -44 -3 -58 -10 -99 -48 -27
-24 -52 -44 -55 -44 -12 0 -136 -203 -183 -300 -56 -116 -89 -212 -77 -224 6
-6 15 -5 23 2 23 20 27 2 7 -36 -21 -41 -21 -117 -1 -236 13 -73 41 -141 49
-117 4 13 -11 97 -29 155 -5 16 -9 41 -8 55 0 24 1 24 9 6 5 -11 11 -32 14
-46 3 -15 21 -45 40 -68 74 -88 153 -313 176 -497 7 -54 16 -130 21 -169 5
-38 12 -155 15 -260 3 -104 10 -194 15 -199 5 -6 9 -18 9 -29 0 -14 -5 -17
-20 -12 -16 5 -20 2 -20 -19 0 -14 5 -28 11 -32 13 -7 4 -79 -27 -231 -3 -18
-3 -40 0 -50 11 -28 27 0 36 63 15 114 32 209 41 226 5 10 9 35 9 57 0 22 5
52 11 68 6 17 12 130 13 283 2 225 0 261 -16 307 -10 29 -18 61 -18 71 0 10
-9 27 -20 37 -12 11 -20 31 -20 50 0 19 -8 39 -20 50 -11 10 -20 22 -20 26 0
5 -11 32 -24 61 -13 29 -31 77 -41 107 -10 30 -26 68 -36 85 -10 17 -21 55
-25 84 -3 28 -10 52 -15 52 -5 0 -9 -4 -9 -10 0 -5 -4 -10 -9 -10 -5 0 -9 19
-9 43 0 23 -3 57 -7 75 -9 41 9 101 48 159 39 59 206 226 242 243 74 35 166
104 172 129 3 14 17 39 30 54 27 33 29 47 8 47 -8 0 -26 -21 -41 -47 -37 -65
-53 -83 -70 -76 -8 3 -17 -2 -20 -11 -3 -9 -12 -16 -20 -16 -8 0 -14 -4 -14
-10 0 -5 -7 -10 -15 -10 -8 0 -15 7 -15 15 0 19 31 55 47 55 7 0 12 4 11 8 -2
4 9 19 23 33 14 13 32 39 40 57 8 18 19 30 26 28 17 -7 23 5 12 25 -11 22 -29
25 -29 6z m-110 -41 c0 -3 -4 -8 -10 -11 -5 -3 -10 -1 -10 4 0 6 5 11 10 11 6
0 10 -2 10 -4z m-143 -100 c-3 -8 3 -22 14 -32 17 -16 19 -16 19 -1 0 10 5 17
10 17 15 0 12 -16 -10 -55 -41 -73 -53 -86 -63 -76 -17 17 -27 13 -27 -10 0
-15 -5 -19 -15 -15 -17 6 -21 -9 -5 -19 19 -12 11 -38 -10 -32 -16 4 -18 2
-10 -13 14 -26 13 -30 -11 -30 -16 0 -19 -4 -14 -20 3 -11 2 -20 -3 -20 -6 0
-21 -21 -34 -47 -13 -27 -29 -57 -35 -68 -6 -11 -14 -28 -17 -37 -7 -23 -23
-23 -30 0 -11 33 43 158 133 310 17 29 31 56 31 61 0 4 11 18 25 31 14 13 25
27 25 32 0 9 22 37 29 38 2 0 1 -6 -2 -14z m30 -1243 c-3 -10 -5 -4 -5 12 0
17 2 24 5 18 2 -7 2 -21 0 -30z m43 -518 c0 -14 -4 -25 -10 -25 -5 0 -10 11
-10 25 0 14 5 25 10 25 6 0 10 -11 10 -25z"></path>
<path d="M5003 657 c-13 -16 -31 -87 -42 -162 -18 -123 -49 -277 -72 -351 -18
-62 -5 -101 18 -51 18 38 43 145 43 185 0 21 4 42 9 47 8 9 14 38 27 145 3 25
10 49 15 55 5 5 9 26 9 46 0 21 5 41 10 44 12 8 13 42 1 49 -5 3 -13 0 -18 -7z"></path>
<path d="M1315 2811 c-8 -14 28 -31 63 -31 35 0 95 -23 85 -33 -3 -4 -24 -7
-45 -7 -49 0 -47 -21 3 -33 101 -25 177 -56 235 -97 19 -14 54 -69 54 -86 0
-27 -234 71 -408 170 -82 47 -117 55 -117 25 0 -22 182 -180 244 -213 27 -14
71 -30 98 -37 67 -16 133 -55 133 -79 0 -45 31 -32 219 93 39 26 74 54 77 62
3 8 21 23 40 34 37 22 43 41 19 61 -8 6 -78 25 -156 41 -162 32 -344 77 -371
90 -10 5 -27 14 -38 19 -11 6 -33 10 -49 10 -17 0 -33 5 -36 10 -8 13 -42 13
-50 1z m107 -225 c88 -39 108 -46 131 -46 22 -1 57 -21 57 -34 0 -35 -249 60
-250 97 0 10 4 9 62 -17z"></path>
<path d="M1050 2513 c0 -4 7 -17 15 -27 17 -23 34 -13 19 11 -12 19 -34 29
-34 16z"></path>
<path d="M1082 2436 c1 -10 8 -17 13 -17 15 1 12 24 -3 29 -9 3 -13 -2 -10
-12z"></path>
<path d="M965 2150 c3 -5 8 -10 11 -10 2 0 4 5 4 10 0 6 -5 10 -11 10 -5 0 -7
-4 -4 -10z"></path>
<path d="M1876 2123 c-7 -8 -41 -79 -85 -178 -13 -27 -27 -58 -32 -67 -5 -10
-9 -23 -9 -30 0 -20 -84 -117 -119 -139 -41 -25 -71 -25 -71 0 0 21 -63 81
-85 81 -29 0 -23 -18 15 -49 21 -17 45 -43 52 -59 12 -24 18 -27 53 -23 21 1
55 14 74 27 20 13 41 24 47 24 6 0 17 6 23 14 10 11 8 17 -6 25 -17 10 -17 12
4 28 12 10 34 45 48 78 15 33 34 76 42 95 28 64 55 125 64 142 16 31 6 51 -15
31z"></path>
<path d="M1110 2055 c0 -18 19 -40 26 -32 4 4 0 15 -9 24 -9 10 -17 13 -17 8z"></path>
<path d="M1128 1945 c-6 -6 84 -188 103 -209 5 -6 11 -3 14 6 3 8 -10 41 -30
73 -19 32 -35 64 -35 69 0 16 -44 68 -52 61z"></path>
<path d="M1070 1919 c0 -6 8 -23 19 -37 16 -23 131 -241 131 -249 0 -7 -40 14
-80 42 -51 36 -78 48 -91 39 -10 -6 12 -54 35 -73 8 -7 12 -19 9 -27 -3 -8 0
-14 6 -14 6 0 11 7 11 15 0 17 25 20 35 5 3 -5 15 -10 25 -10 10 0 55 -31 99
-70 45 -38 87 -70 93 -70 6 0 27 -12 45 -26 31 -24 41 -26 96 -21 118 11 322
57 322 72 0 15 -53 18 -84 6 -24 -10 -210 -25 -308 -25 -43 0 -100 31 -96 53
2 6 -20 27 -47 48 -31 23 -50 45 -50 58 0 11 -10 36 -22 55 -11 19 -37 64 -56
100 -61 115 -76 140 -84 140 -4 0 -8 -5 -8 -11z"></path>
<path d="M1350 1544 c0 -16 71 -55 92 -52 18 3 17 5 -10 25 -33 24 -82 40 -82
27z"></path>
<path d="M1460 1541 c0 -13 26 -21 67 -21 53 0 36 24 -20 27 -26 2 -47 -1 -47
-6z"></path>
<path d="M1465 1250 c-7 -12 2 -30 16 -30 12 0 12 27 0 35 -5 3 -12 1 -16 -5z"></path>
<path d="M6446 2586 c-9 -14 -16 -36 -16 -49 0 -12 -4 -27 -9 -32 -19 -22 -19
-80 0 -104 22 -28 39 -20 21 10 -12 19 -4 60 30 152 15 40 -4 56 -26 23z"></path>
<path d="M6571 2513 c-13 -25 -18 -87 -7 -93 7 -4 43 82 46 108 1 11 -31 -2
-39 -15z"></path>
<path d="M6512 2475 c-15 -32 -15 -65 -2 -65 6 0 10 11 10 24 0 14 5 28 10 31
12 7 13 35 2 35 -5 0 -14 -11 -20 -25z"></path>
<path d="M6472 2340 c-6 -22 -12 -48 -12 -59 0 -10 -7 -24 -15 -31 -8 -7 -15
-19 -15 -27 0 -7 -7 -13 -16 -11 -10 2 -24 -11 -35 -32 -10 -19 -25 -39 -32
-45 -38 -29 -65 -115 -37 -115 6 0 10 7 10 14 0 17 93 144 122 167 17 13 57
128 58 167 0 26 -16 10 -28 -28z"></path>
<path d="M6407 2354 c-3 -4 -4 -19 -1 -34 4 -15 1 -31 -5 -34 -12 -8 -15 -46
-3 -46 12 0 32 51 32 81 0 28 -12 44 -23 33z"></path>
<path d="M6581 2261 c-7 -12 -18 -21 -25 -21 -8 0 -23 -19 -35 -42 -11 -24
-27 -54 -35 -68 -38 -68 -40 -79 -21 -100 16 -18 16 -22 3 -42 -22 -34 -32
-86 -19 -102 8 -10 7 -23 -4 -49 -20 -49 -19 -60 5 -52 22 7 26 -6 10 -35 -7
-13 -6 -21 5 -30 19 -16 19 -50 -1 -78 -18 -25 -11 -42 17 -42 23 0 25 -24 4
-64 -20 -39 -13 -61 15 -46 13 7 20 21 20 40 0 17 5 30 10 30 6 0 10 -14 10
-30 0 -30 -2 -36 -34 -97 -20 -39 -20 -53 -1 -53 8 0 15 7 15 15 0 20 16 19
24 -2 8 -21 -3 -101 -15 -109 -12 -7 -12 -44 0 -44 5 0 20 19 34 43 25 42 27
86 6 113 -5 6 -8 49 -8 96 1 46 -3 93 -9 104 -8 15 -8 32 -1 56 5 20 8 62 7
94 -4 97 5 265 14 270 11 7 10 78 -2 90 -10 10 9 88 32 132 8 16 9 25 1 33 -8
8 -14 5 -22 -10z m-41 -130 c0 -16 5 -31 12 -33 9 -3 8 -15 -1 -49 -7 -24 -14
-87 -15 -139 -3 -101 -13 -160 -27 -160 -5 0 -9 11 -9 24 0 14 -4 27 -9 31
-11 6 -8 121 3 132 10 10 7 73 -5 95 -8 14 -8 27 -1 42 6 11 16 36 24 54 16
40 28 41 28 3z"></path>
<path d="M6240 1870 c0 -16 -6 -33 -14 -37 -8 -4 -15 -17 -18 -28 -5 -29 -22
-22 -32 14 -5 17 -13 31 -17 31 -16 0 -9 -45 11 -70 11 -14 20 -33 20 -42 0
-28 14 -21 29 15 38 89 50 147 31 147 -5 0 -10 -13 -10 -30z"></path>
<path d="M6904 224 c-10 -22 -28 -55 -40 -74 -31 -50 -39 -80 -20 -80 22 0
104 166 89 181 -8 8 -16 1 -29 -27z"></path>
<path d="M4253 2451 c-34 -9 -103 -47 -173 -97 -25 -17 -62 -38 -83 -45 -41
-15 -63 -34 -49 -43 11 -6 134 55 212 106 83 54 190 62 138 10 -15 -15 16 -52
43 -52 26 0 33 17 12 29 -10 5 -23 29 -28 53 -12 46 -21 51 -72 39z"></path>
<path d="M4490 1997 c-60 -21 -40 -32 50 -28 96 3 111 8 85 28 -23 16 -88 16
-135 0z"></path>
<path d="M2600 1904 c0 -8 5 -12 10 -9 6 3 10 10 10 16 0 5 -4 9 -10 9 -5 0
-10 -7 -10 -16z"></path>
<path d="M2230 1050 c0 -5 5 -10 10 -10 6 0 10 5 10 10 0 6 -4 10 -10 10 -5 0
-10 -4 -10 -10z"></path>
<path d="M2192 878 c-19 -24 -67 -272 -56 -290 3 -5 11 -8 19 -8 9 0 15 18 18
58 6 60 18 129 36 197 10 42 2 65 -17 43z"></path>
<path d="M2706 824 c-21 -25 -36 -47 -33 -50 6 -6 87 76 87 88 0 17 -17 5 -54
-38z"></path>
<path d="M2735 787 c-39 -44 -76 -97 -66 -97 6 0 14 6 18 14 4 8 22 29 38 48
17 18 34 39 38 46 13 20 -6 13 -28 -11z"></path>
<path d="M2631 733 c-12 -15 -55 -64 -96 -108 -95 -103 -145 -164 -145 -177 0
-17 27 10 109 107 41 49 92 107 111 128 39 44 54 66 47 73 -3 3 -14 -8 -26
-23z"></path>
<path d="M2550 725 c0 -9 -4 -14 -8 -11 -12 7 -32 -8 -36 -30 -3 -10 -7 -27
-11 -36 -11 -28 11 -21 31 10 33 49 43 71 33 77 -5 4 -9 -1 -9 -10z"></path>
<path d="M1835 630 c-4 -6 7 -27 25 -48 69 -83 127 -158 133 -176 6 -14 11
-16 19 -8 8 8 3 21 -18 48 -16 21 -55 71 -86 112 -69 91 -65 86 -73 72z"></path>
<path d="M2428 568 c-21 -25 -34 -48 -31 -52 10 -9 74 65 71 82 -2 10 -16 -1
-40 -30z"></path>
<path d="M2582 515 c-33 -37 -27 -51 8 -18 17 15 30 31 30 35 0 15 -17 8 -38
-17z"></path>
<path d="M2210 490 c0 -5 5 -10 10 -10 6 0 10 5 10 10 0 6 -4 10 -10 10 -5 0
-10 -4 -10 -10z"></path>
<path d="M2320 480 c0 -5 5 -10 10 -10 6 0 10 5 10 10 0 6 -4 10 -10 10 -5 0
-10 -4 -10 -10z"></path>
<path d="M2185 450 c-3 -5 -1 -10 4 -10 6 0 11 5 11 10 0 6 -2 10 -4 10 -3 0
-8 -4 -11 -10z"></path>
<path d="M2437 352 c-51 -52 -46 -61 8 -15 43 35 55 53 37 53 -4 0 -25 -17
-45 -38z"></path>
<path d="M4307 1123 c-3 -4 -7 -30 -8 -58 -3 -39 -1 -50 11 -50 11 0 16 13 18
49 3 45 -9 79 -21 59z"></path>
<path d="M4376 1122 c-11 -19 -18 -82 -8 -82 15 0 19 9 27 53 5 24 3 37 -3 37
-6 0 -13 -3 -16 -8z"></path>
<path d="M4830 1214 c0 -64 3 -85 13 -81 6 2 12 16 11 30 -2 107 -5 137 -14
137 -6 0 -10 -35 -10 -86z"></path>
<path d="M4768 1209 c-3 -63 -1 -72 13 -63 12 7 11 124 0 124 -5 0 -11 -27
-13 -61z"></path>
<path d="M0 2841 c0 -15 55 -97 72 -107 14 -9 -37 83 -58 106 -11 11 -14 11
-14 1z"></path>
<path d="M1771 96 c-8 -9 -11 -19 -7 -23 9 -9 29 13 24 27 -2 8 -8 7 -17 -4z"></path>
</g>
</svg>